<?xml version="1.0" encoding="UTF-8" standalone="no"?>
<!DOCTYPE svg PUBLIC "-//W3C//DTD SVG 1.1//EN" "http://www.w3.org/Graphics/SVG/1.1/DTD/svg11.dtd">
<svg width="100%" height="100%" viewBox="0 0 646 152" version="1.1" xmlns="http://www.w3.org/2000/svg" xmlns:xlink="http://www.w3.org/1999/xlink" xml:space="preserve" xmlns:serif="http://www.serif.com/" style="fill-rule:evenodd;clip-rule:evenodd;stroke-linejoin:round;stroke-miterlimit:2;">
    <g transform="matrix(1,0,0,1,-1320.24,-1102.78)">
        <g transform="matrix(0.267867,0,0,0.267867,1182.59,991.183)">
            <g transform="matrix(388.42,0,0,388.42,2941.4,875.888)">
            </g>
            <text x="1334.89px" y="875.888px" style="font-family:'Comfortaa-Bold', 'Comfortaa';font-weight:700;font-size:388.42px;fill:rgb(0,32,122);stroke:rgb(0,32,122);stroke-width:11.2px;">W<tspan x="1656.51px " y="875.888px ">a</tspan>cana</text>
        </g>
        <g transform="matrix(0.338903,0,0,0.338903,797.599,898.625)">
            <g transform="matrix(0.661574,0,0,0.661574,-276.574,1456.21)">
                <path d="M3336.56,-1051.67C3307.51,-1051.67 3240.38,-1146.94 3239.86,-1193.87C3239.27,-1247.24 3283.19,-1290.58 3336.56,-1290.58C3389.93,-1290.58 3433.85,-1247.24 3433.26,-1193.87C3432.74,-1146.94 3364.26,-1051.67 3336.56,-1051.67Z" style="fill:rgb(99,199,255);"/>
            </g>
            <g transform="matrix(1,0,0,1,135.273,1801.79)">
                <path d="M1894.13,-1008.62L1894.22,-864.581C1894.25,-821.698 1868.19,-783.024 1828.21,-766.601C1788.22,-750.178 1742.19,-759.242 1711.58,-789.564L1653.22,-847.387L1589.52,-784.28C1558.91,-753.958 1512.88,-744.894 1472.9,-761.317C1432.91,-777.74 1406.86,-816.414 1406.88,-859.296L1407.01,-1060.97C1407.04,-1103.83 1433.12,-1142.45 1473.09,-1158.84C1513.06,-1175.23 1559.06,-1166.15 1589.65,-1135.85L1607.47,-1118.2L1539.13,-1049.86C1528.18,-1038.91 1522.03,-1024.06 1522.03,-1008.57C1522.03,-993.088 1528.18,-978.237 1539.13,-967.287L1540.07,-966.344C1551.14,-955.27 1566.2,-949.109 1581.86,-949.244C1597.52,-949.38 1612.47,-955.8 1623.35,-967.063L1683.74,-1029.58L1758.41,-962.707C1784.84,-936.285 1822.21,-936.285 1848.64,-962.707L1894.13,-1008.62Z" style="fill:rgb(77,113,229);"/>
            </g>
        </g>
    </g>
</svg>
